<svg id="filled_outline" height="512" viewBox="0 0 512 512" width="512" xmlns="http://www.w3.org/2000/svg" data-name="filled outline"><path d="m312 24a176 176 0 1 0 176 176 176 176 0 0 0 -176-176zm0 240a64 64 0 1 1 64-64 64 64 0 0 1 -64 64z" fill="#e6a565"/><path d="m312 56a144 144 0 1 0 144 144 144 144 0 0 0 -144-144zm0 208a64 64 0 1 1 64-64 64 64 0 0 1 -64 64z" fill="#e5e7e9"/><path d="m200 136a176 176 0 1 0 176 176 176 176 0 0 0 -176-176zm0 256a80 80 0 1 1 80-80 80 80 0 0 1 -80 80z" fill="#f5b97d"/><path d="m200 224a88 88 0 1 0 88 88 88.09957 88.09957 0 0 0 -88-88zm72 88a71.875 71.875 0 0 1 -2.12354 17.33667 136.12294 136.12294 0 0 1 -87.21313-87.21313 71.9815 71.9815 0 0 1 89.33667 69.87646zm-144 0a71.59318 71.59318 0 0 1 13.7226-42.20819 184.64265 184.64265 0 0 0 100.4854 100.48578 71.94449 71.94449 0 0 1 -114.208-58.27759zm127.20483 46.1568a168.51328 168.51328 0 0 1 -101.36139-101.3618 72.2271 72.2271 0 0 1 13.80817-9.08856 152.16741 152.16741 0 0 0 96.642 96.64191 72.23159 72.23159 0 0 1 -9.08878 13.80845z"/><path d="m156.686 192h22.627v16h-22.627z" transform="matrix(.707 -.707 .707 .707 -92.215 177.373)"/><path d="m312 16a184.07479 184.07479 0 0 0 -173.49561 122.58167c-71.30731 25.36175-122.50439 93.51824-122.50439 173.41833 0 101.458 82.542 184 184 184 79.90027 0 148.05695-51.19739 173.41852-122.50494a184.07528 184.07528 0 0 0 122.58148-173.49506c0-101.458-82.542-184-184-184zm-112 464c-92.63574 0-168-75.36426-168-168s75.36426-168 168-168 168 75.36426 168 168-75.36426 168-168 168zm144-360a49.61468 49.61468 0 0 1 14.62744-35.314l8.84747-8.84748a136.79318 136.79318 0 0 1 70.7685 73.59052 94.69026 94.69026 0 0 0 -48.7732 2.98156l5.05958 15.17872a78.74934 78.74934 0 0 1 44.07275-1.69239l5.40088 1.35022a136.00753 136.00753 0 0 1 -60.047 148.184c.021-1.14215.04358-2.28399.04358-3.43115a182.99521 182.99521 0 0 0 -13.7348-69.726 71.89531 71.89531 0 0 0 -7.27033-93.04962l7.51734-12.52912a34.56152 34.56152 0 0 1 29.48779-16.69526v-16a50.64142 50.64142 0 0 0 -43.20752 24.46338l-6.40234 10.67053a71.845 71.845 0 0 0 -80.66486 2.60065 182.99526 182.99526 0 0 0 -69.72528-13.73456c-1.14709 0-2.28894.02258-3.43109.04358a136.05617 136.05617 0 0 1 154.41461-58.34058l-3.66952 3.66956a65.5103 65.5103 0 0 0 -19.314 46.62744zm24 80a56.08319 56.08319 0 0 1 -5.90466 25.00238 185.30856 185.30856 0 0 0 -75.09919-75.09851 55.98083 55.98083 0 0 1 81.00385 50.09613zm11.14557 154.05316a182.83536 182.83536 0 0 0 3.46252-19.42816 151.95709 151.95709 0 0 0 81.39191-134.625c0-83.813-68.187-152-152-152a151.95458 151.95458 0 0 0 -134.62469 81.39191 182.84678 182.84678 0 0 0 -19.42865 3.46258 167.687 167.687 0 0 1 154.05334-100.85449c92.63574 0 168 75.36426 168 168a167.68645 167.68645 0 0 1 -100.85443 154.05316z"/><path d="m396.686 192h22.627v16h-22.627z" transform="matrix(.707 -.707 .707 .707 -21.921 347.078)"/><path d="m412.686 216h22.627v16h-22.627z" transform="matrix(.707 -.707 .707 .707 -34.205 365.421)"/><path d="m212.686 256h22.627v16h-22.627z" transform="matrix(.707 -.707 .707 .707 -121.068 235.716)"/><path d="m392 252.686h16v22.627h-16z" transform="matrix(.707 -.707 .707 .707 -69.519 360.167)"/><path d="m240 284.686h16v22.627h-16z" transform="matrix(.707 -.707 .707 .707 -136.666 262.059)"/><path d="m295.15576 79.80078a43.53933 43.53933 0 0 1 -39.15576 24.19922v16a59.45273 59.45273 0 0 0 53.4668-33.04443l1.689-3.37842-14.31152-7.1543z"/><path d="m112 195.056h16v17.889h-16z" transform="matrix(.447 -.894 .894 .447 -116.129 220.1)"/><path d="m224 164.686h16v22.627h-16z" transform="matrix(.707 -.707 .707 .707 -56.5 215.598)"/><path d="m264 216h24v16h-24z"/><path d="m76 231.056h16v17.889h-16z" transform="matrix(.894 -.447 .447 .894 -98.463 62.903)"/><path d="m84.686 272h22.627v16h-22.627z" transform="matrix(.707 -.707 .707 .707 -169.872 149.892)"/><path d="m64 316.686h16v22.627h-16z" transform="matrix(.707 -.707 .707 .707 -210.843 146.981)"/><path d="m59.056 368h17.889v16h-17.889z" transform="matrix(.447 -.894 .894 .447 -298.715 268.669)"/><path d="m312 235.056h16v17.889h-16z" transform="matrix(.447 -.894 .894 .447 -41.349 421.097)"/><path d="m307.056 272h17.889v16h-17.889z" transform="matrix(.447 -.894 .894 .447 -75.759 437.419)"/><path d="m332 311.056h16v17.889h-16z" transform="matrix(.894 -.447 .447 .894 -107.214 185.836)"/><path d="m100 375.056h16v17.889h-16z" transform="matrix(.894 -.447 .447 .894 -160.328 88.839)"/><path d="m103.056 412h17.889v16h-17.889z" transform="matrix(.894 -.447 .447 .894 -176.006 94.429)"/><path d="m159.056 412h17.889v16h-17.889z" transform="matrix(.894 -.447 .447 .894 -170.093 119.472)"/><path d="m184 444.686h16v22.627h-16z" transform="matrix(.707 -.707 .707 .707 -266.205 269.324)"/><path d="m227.056 416h17.889v16h-17.889z" transform="matrix(.447 -.894 .894 .447 -248.78 445.466)"/><path d="m272 403.056h16v17.889h-16z" transform="matrix(.447 -.894 .894 .447 -213.724 478.188)"/><path d="m303.056 372h17.889v16h-17.889z" transform="matrix(.894 -.447 .447 .894 -137.002 179.648)"/></svg>