<?xml version="1.0" encoding="utf-8"?>
<!-- Generator: Adobe Illustrator 19.2.1, SVG Export Plug-In . SVG Version: 6.00 Build 0)  -->
<svg version="1.1" id="Layer_1" xmlns="http://www.w3.org/2000/svg" xmlns:xlink="http://www.w3.org/1999/xlink" x="0px" y="0px"
	 viewBox="0 0 558.2 580.9" style="enable-background:new 0 0 558.2 580.9;" xml:space="preserve">
<style type="text/css">
	.st0{fill:#FFFFFF;}
	.st1{fill:#333366;}
	.st2{fill:#333466;}
</style>
<g>
	<g>
		<path class="st0" d="M280.1,96.1C167.5,95.9,76.2,184.8,76.2,294.7S167.5,493.8,280.1,494S484,405.3,484,295.4
			S392.7,96.3,280.1,96.1z"/>
		<path class="st1" d="M279.1,92.2C163.7,92,70.2,183.1,70.2,295.7s93.5,204,208.9,204.2S488,409,488,296.4S394.5,92.4,279.1,92.2z
			 M279.1,485.8c-106.9-0.2-193.6-86.6-193.6-193.1c0-75.9,44-141.5,108.1-172.8c2.5-1.2,6.7,4.9,9.2,3.8c2.1-0.9,2.7-9.1,4.9-10
			c22.1-8.7,46.2-13.5,71.4-13.4c106.9,0.2,193.6,86.6,193.6,193.1S386,486,279.1,485.8z"/>
		<path class="st0" d="M210.1,545.3c-1.9,0-3.7-1-6.1-2.4c-1.5-0.8-3.3-1.8-5.3-2.6c-3-1.2-4.8-3.3-5.9-4.8l-0.8-1.1l-1.2,0.7
			c-0.4,0.2-0.8,0.4-1.1,0.6c-2.8,1.4-7.6,2.3-12.7,2.3c-5.7,0-11.2-1-15.6-2.9c-3.9-2.6-8.8-12.6-13.3-26.6l-0.3-1l-1,0
			c-10.3-0.1-19.4-1.9-23.6-4.5c-5.7-10.5-18.6-64.2-18-71.9c0.1-1.6,0.8-4.4,2-7.9l0.4-1.2l-1.1-0.5c-9.4-4.5-29-17-32.2-25.8
			c1.5-5.1,8.1-13,13.5-18.2l0.6-0.6l-0.3-0.9c-2.1-6.1-3.1-12.8-2.9-20c4-4.2,9.7-8.4,17.1-12.4l1.4-0.7l-0.8-1.3
			c-2.7-4.3-5.4-9.8-5.6-12.8c1-0.9,4-3.3,8.8-5.9l0.8-0.4l0-0.9c-0.4-8.6-0.1-37.8,18.4-54.1c4.8-4.2,25.5-12.5,52-12.5
			c14.3,0,27.4,2.5,39,7.4l4.4,1.9l-2.6-4c-3.1-4.7-5.6-9.8-7.3-15c-1.3-5.5-1.8-13.5-1.6-23.5l0-1.3l-1.3-0.2
			c-0.2,0-15.5-2.1-21.9-10.1c-0.1-0.3-1.2-3,1.5-11.6l0.2-0.6l-0.3-0.5c-0.7-1.3-1.6-2.8-2.6-4.4c-4.9-8.3-13-22.2-12.6-30.8
			c0.3-7,5.3-12.9,9.8-16.2l1.1-0.8l-0.8-1.2c-4.6-6.8-15.5-22.9-19.8-27.4c-4.5-10.1-5.8-30.4-6.2-37.2c6.5,2.7,26.3,11.5,33.2,20
			c0.6,1.6,4.9,12.1,10.7,24.1l2.7-1c-3.2-12.7-4.4-38.6-3.7-41.1c0.8-3.2,15.5-23.6,20.3-26.5c0.5,1.4,1,4.4,1.2,7.3l0.2,3.4
			l2.3-2.5c22-24.4,56.7-25.6,63.4-25.6c1,0,1.5,0,1.5,0l0.1,0l0.1,0c0,0,0.8-0.1,2.3-0.1c8.8,0,39.4,1.8,62.6,25.6
			c11.4,13.7,18.4,33.1,19.1,53.1c0.4,11.9-1.5,23.4-3,32.6c-0.6,3.4-1.1,6.6-1.4,9.4l-0.6,4.7l3.1-3.6
			c13.2-15.2,17.3-16.4,18.3-16.4c0.1,0,0.1,0,0.1,0c5,1.1,14.9,8.9,15.4,19c0.4,8.5-7.7,22.5-12.6,30.8c-1,1.7-1.9,3.2-2.6,4.4
			l-0.3,0.5l0.2,0.6c2.8,8.6,1.7,11.3,1.5,11.6c-6.4,8-21.8,10-21.9,10.1l-1.3,0.2l0,1.3c0.3,10.1-0.3,18-1.6,23.5
			c-5,15.2-15.3,27.7-30.7,37l-1.2,0.7l0.7,1.2c1.8,3.2,5.2,10,8.5,19.5l0.2,0.6l0.5,0.3c17.9,8.7,51.3,29,74.4,66.6
			c-1.9,14-13.9,47.2-16.3,50.5l-0.8,1.1l1,0.9c5.3,4.7,8.5,8.9,9.1,10.7l-12.7,11.5c-13.6,10.6-28.6,19.4-44.6,26
			c-1.9,0.5-2.9,1.2-3.6,1.8c-0.7,0.5-1.1,0.8-2.2,0.8l-0.5,0l-0.3,0.1c-21.7,8.1-44.5,12.2-67.7,12.2H279c-2.5,0-5.1-0.1-8.2-0.2
			l-1.3-0.1l-0.2,1.2c-0.1,0.2-0.8,0.6-1.8,0.6c-0.8,0-1.2-0.2-1.3-0.3l0.4-1.6l-1.7-0.1c-8.2-0.6-16.4-1.7-24.3-3.3l-3-0.6l1.4,2.7
			c2.8,5.4,6.7,13,7.6,17.4c2,9.3-1.5,12.7-5.5,16.6c-0.4,0.4-0.7,0.7-1.1,1.1c-2.1,2.1-4.3,2.6-5.7,2.6l-1.3,0l-0.3,1.1
			c-4.4,15.9-19.2,21.5-21.9,22C210.6,545.3,210.4,545.3,210.1,545.3z"/>
		<g>
			<path class="st1" d="M253.4,150.7c-11.7-1.8-23.9,5.6-25.8,17.8c0.5,3.3,3.8,2.6,5.9,1.7c0,0,0-0.1,0-0.1c1.7-9,9-14.9,18.2-14.5
				c0.8,0,1.6,0.1,2.4,0.3c-2.1,0.9-4,2.6-5.2,4.4c-4.8,7.2-0.9,19.3,9.3,17.3c4.2-0.8,7-5.1,7.7-9.2c0.4-2.8,0-5.3-1.3-7.5
				c4,3.4,6.8,8.2,6.7,13.5c1-0.7,1.1,0.2,1.3-1.2C274,161.7,264.2,152.3,253.4,150.7z"/>
			<path class="st1" d="M319.5,150.7c11.7-1.8,23.9,5.6,25.8,17.8c-0.5,3.3-3.8,2.6-5.9,1.7c0,0,0-0.1,0-0.1
				c-1.7-9-9-14.9-18.2-14.5c-0.8,0-1.6,0.1-2.4,0.3c2.1,0.9,4,2.6,5.2,4.4c4.8,7.2,0.9,19.3-9.3,17.3c-4.2-0.8-7-5.1-7.7-9.2
				c-0.4-2.8,0-5.3,1.3-7.5c-4,3.4-6.8,8.2-6.7,13.5c-1-0.7-1.1,0.2-1.3-1.2C298.9,161.7,308.7,152.3,319.5,150.7z"/>
			<g>
				<path class="st1" d="M206.5,182.7c-2.1-7.2-14.1-20.1-14.2-19.8c-2.4,0-5.6,1-7.2,2.4c0,0-0.2,2,0.4,3.2
					c0.4-1.6,0.3-2.4,0.9-2.8c0.6-0.3,3.3-1.5,5.2-1.6c1.6,1.2,11.1,12.4,13.3,17.8c-1.4,2.3-2.9,4.1-2.5,7.3c0,0,0.4,3.9,5.3,5.9
					C207.7,195.2,201.1,190.2,206.5,182.7z"/>
				<path class="st1" d="M246.7,124.4c0,0-3-1.2-6.2,0s-8.4,12.4-9.9,17.6s1.9,6.7,1.9,6.7s0.8-2.2,2-2.4c2.2-1.4,30.4-3.5,41.9-4
					C267.5,133.7,246.7,124.4,246.7,124.4z"/>
				<path class="st1" d="M405.6,161c-0.5-10.7-10.7-19-16.5-20.3c-3.7-0.8-13.3,9.3-19.8,16.8c1.2-10.1,5-25.8,4.5-42.2
					c-0.7-18.9-6.9-39-19.5-54c-27.7-28.5-66-26-66-26s-40.9-1.8-66,26c0,0-0.5-7.7-2-9c-4.8,0.7-21.5,24.5-22.3,27.9
					c-0.7,3,0.5,28.9,3.7,41.8c-6.3-13.1-10.7-24.2-10.7-24.2c-8.5-10.7-36-21.5-36-21.5s0.8,27.7,6.5,40.2
					c4.2,4.2,15.6,21,19.9,27.4c-5,3.6-10,9.9-10.4,17.3c-0.5,10.7,11,28.2,15.3,36c-3.3,10.3-1.3,12.8-1.3,12.8
					c6.8,8.6,22.9,10.7,22.9,10.7s0,0,0,0c-0.3,9.4,0.1,17.8,1.6,24c13.8,42.3,64.9,52.8,78.8,52.8s65-10.4,78.8-52.8
					c1.5-6.2,1.9-14.6,1.6-24c0,0,0,0,0,0s16.1-2.1,22.9-10.7c0,0,2-2.5-1.3-12.8C394.6,189.2,406.1,171.7,405.6,161z M164.1,116
					c0.1-2.7,1.4-4.2,1.4-4.2c1.1,0,2.7,1.5,3.9,3.1c0.2-0.2,1.4-5.5,1.4-5.5s15.8,16.4,20.2,16.5c1-3.8-9.6-20.8-9.6-20.8
					s3.2,2,6,2.4c2.9-2.6,1.3-7.5,1.3-7.5s0,3.5-2.2,6.3c-3.2-1-6-1.8-6-1.8s0.1,0.2,0.3,0.4c0,0.1,0.1,0.2,0.2,0.3
					c1.7,2.8,7,12.5,6.8,16.6c-5-1-16.8-13.8-17.2-12.8s-1.5,4-1.5,4s-1.2-2.2-3.8-2.2c-1.1,1.2-1.6,3.3-1.9,4.3l-0.2-0.3
					c0,0-4.4-17.3-3.5-16.5c0.9,0.9,4.2,3.4,5,2.6s-0.2-6.4-0.2-6.4s7.5,7.9,8.4,7.2s-0.9-7.2-0.9-7.2l5.2,1.8c0,0-0.9-3.4-2.9-5.8
					c0.8-0.6,5.8,2.8,6.2,2.9c3.3,1.8,6.8,4.9,8.9,6.9c2.5,11.5,22.5,45.6,26.4,52.3c-0.5,3-1.3,7.3-2.2,12.6l0,0
					c0,0-20.5-25.9-26.3-24.6c-0.9,0.2-1.9,0.6-2.9,1.1L164.1,116z M208.5,207.2c-2.5-0.7-9.4-2.9-11.9-7.3
					c-0.4-0.1-0.5-1.8-0.5-1.8s-4.5,5,12.2,10.6c-0.2,3-0.4,6-0.5,8.9c-6.8-1.4-17.7-5.5-19.7-8.5c-2.1-3.2,0.6-10.1,1.9-14.2
					c-14.1-16.8-15.5-33-15.5-33s1.1-11.9,14.2-17.1c10,4.1,23.9,26.4,23.9,26.4l0-0.1C211.2,181.6,209.5,194.6,208.5,207.2z
					 M363.7,242c-5.8,30.3-53.6,52-75.5,52s-69.6-21.6-75.5-52c-5.8-30.3,7.6-98.4,7.6-98.4l-0.3,0.4c2.4-8.8,12.7-45.2,21.2-48.8
					c13.5-4.2,32.2,9.2,47,10.5c14.8-1.3,33.5-14.7,47-10.5c9.1,3.9,19.8,44.1,21,48.7l-0.2-0.2C356.1,143.7,369.5,211.7,363.7,242z
					 M388.2,209.1c-2,3.1-12.9,7.1-19.7,8.5c-0.1-2.9-0.3-5.9-0.5-8.9c16.7-5.5,12.2-10.6,12.2-10.6s-0.1,1.7-0.5,1.8
					c-2.4,4.4-9.4,6.6-11.9,7.3c-1-12.6-2.7-25.5-4.3-36.1l0,0.1c0,0,13.9-22.3,23.9-26.4c13.1,5.2,14.2,17.1,14.2,17.1
					s-1.4,16.2-15.5,33C387.6,199,390.4,205.9,388.2,209.1z"/>
				<path class="st1" d="M384.2,162.9c-0.1-0.2-12.1,12.7-14.2,19.8c5.3,7.4-1.2,12.5-1.2,12.5c4.9-2,5.3-5.9,5.3-5.9
					c0.5-3.2-1-5-2.5-7.3c2.2-5.4,11.8-16.6,13.3-17.8c1.9,0.1,4.6,1.2,5.2,1.6c0.6,0.3,0.5,1.1,0.9,2.8c0.6-1.2,0.4-3.2,0.4-3.2
					C389.7,163.9,386.6,162.9,384.2,162.9z"/>
				<path class="st1" d="M311.5,202.9c-0.4-3.5-1.3-8.5-7.6-10.9c0,0,6.1,7.6,1.9,11.5c-1.9,2.1-4.8,0.8-6.1,2.1
					c-2.1,2.6-7,5.2-11.4,5.1c0,2.5,0,5.2,0,5.2s9.2-0.5,16.1-6.5C307.2,208.1,311.9,206.4,311.5,202.9z"/>
				<path class="st1" d="M334.1,213.2c-6,0.9-34,10.6-46,10.6s-40.3-10.1-46.2-11c-4.9-0.7-5,1.8-5,1.8c1,1.4,0,0,2.6,1.6
					c2.6,1.6,5.4,8.3,13.2,15.5s27.7,12.3,27.7,12.3s-20-6.3-26.8-16.8c0.1-1.2,1-2.5,1-2.5s-1.1-4-0.9-5.8
					c7.5,3.8,31.2,8.2,34.2,8.2s26.1-3.2,33.7-6.9c0.1,1.8-1.5,5.3-1.5,5.3s0.7,1.7,1,2.5c-6,9.7-21.5,15.7-21.5,15.7
					s16.5-4.9,24.3-12.2s10-13.5,12.7-15.1c2.6-1.6,1.7-0.1,2.6-1.6C339.1,215,339,212.5,334.1,213.2z"/>
				<path class="st1" d="M329.7,124.6c-3.2-1.2-6.2,0-6.2,0s-20.8,9.4-29.6,17.9c11.5,0.5,39.6,2.6,41.9,4c1.2,0.2,2,2.4,2,2.4
					s3.4-1.4,1.9-6.7S333,125.9,329.7,124.6z"/>
				<path class="st1" d="M277.7,192.6c3.9-12.6,4.2-32.5,4.2-32.5s-6.9,27.2-7,29c-1.4,1.4-4.2,3.3-6,4.9c-3.2,2.6-3.8,6.2-4.1,8.9
					c-0.4,3.5,4.3,5.2,7.1,6.6c6.9,6,16.1,6.5,16.1,6.5s0-2.8,0-5.2c-4.4,0.1-9.2-2.5-11.4-5.1c-1.4-1.2-4.2,0-6.1-2.1
					c-0.2-0.2-0.4-0.5-0.6-0.7C270.1,200.6,271,196.1,277.7,192.6z"/>
			</g>
		</g>
		<path class="st1" d="M228.1,221c0,0-3.8-8,3-11.8s17.8-3.8,17.8-3.8s-15.2,3-18.2,6.8S228.1,221,228.1,221z"/>
		<path class="st1" d="M348.8,221c0,0,3.8-8-3-11.8s-17.8-3.8-17.8-3.8s15.2,3,18.2,6.8S348.8,221,348.8,221z"/>
		<g>
			<path class="st1" d="M207.1,341.9c-0.3-0.7-0.6-1.2-0.9-1.5C206.5,340.8,206.8,341.3,207.1,341.9z"/>
			<path class="st1" d="M322.5,287.7l-4,2c-2.1,32.9-22.7,60.6-37.3,76.2c-3.8-1.7-10.9-6.9-15.4-22.9c-6.3-22.7-10.3-49.7-16-57.3
				l-2.1,0.8c-3.3-8-11.2-17.6-28.9-25.7c-38.5-17.5-85.8-3.2-94.5,4.5c-19,16.7-19.3,46.5-18.9,55.3c-6.4,3.4-9.6,6.5-9.6,6.5
				c-0.2,3.6,3.3,10.2,5.8,14.3c-6.9,3.8-13.3,8.2-17.8,13.1c-0.3,8.3,1,15.3,3,21c-4.7,4.6-12.5,13.5-14,19.3
				c3.2,10.2,25.5,23.4,33.1,27.1c-1.1,3.4-1.9,6.4-2.1,8.3c-0.7,8,12.3,62.7,18.3,73c4.4,3,14.2,4.8,24.7,4.9
				c2.3,7.1,8,23.5,14,27.4c10,4.3,23.7,3.7,29.7,0.7c0.3-0.2,0.7-0.4,1.2-0.6c1.1,1.7,3.2,3.9,6.5,5.3c5.7,2.3,9,5.7,13,5
				c3.3-0.6,18.5-6.6,23.1-23c1.8,0,4.4-0.4,6.9-3c4.3-4.3,9.3-8,7-19c-2.3-11-22-41.7-25-50.7c0.3-3.5,0.7-12-0.1-22
				c2.3-2.7,3.9-6.5,4.9-10.8c2.3-2.4,6.1-6.6,8.9-10.9c0.9-1.4,1.3-3.2,1.4-5.4c2.8-0.7,8.4-6.3,12.3-12c3.5-5,2.1-37.9,2.1-52.5
				c6.5,14.1,9.4,25.3,14.5,34.5c-0.8-8.8-10.9-36.6-14.4-46.3c-0.2-2.4-0.5-5-0.9-7.5c1.3,2.9,2.9,7.1,4.6,12.8
				c4.7,15.7,17.3,37.7,21.3,39.3c0.1,0,0.1,0,0.1,0c-6.5,6.7-11.1,10.4-11.1,10.4c0.7,2,9.7,22.3,11.7,33c2,10.7-14.7,78-14.7,78
				l6.3-0.3c0,0,12.7-69.7,12.7-77.7s-12.7-32-12.7-32C320.8,340.7,322.5,287.7,322.5,287.7z M77.8,395c0,0,0.6-8.4,10.2-16.5
				c6.1,14.5,16.8,20.2,16.8,20.2c3.6,0.2,7,0.3,10.1,0.2c-1.7,3.8-4.2,9.5-6.4,15.2C101.9,412,86.1,406.1,77.8,395z M242.8,501.7
				c-1.9,8.2-3.5,13.4-7.6,15.6c0.2-2,0.3-4.1,0.2-6.3c0,0-1.3-12.3-22-29c0,0-6-4.7-9.3-15.3c0.7,11.3,0.7,14,4,19
				c3.3,5,10.7,7.7,13,11.3c2.3,3.7,9.3,14,8,18c-1.3,4-5,19.7-17.3,22.7c0,0-11-2.1-14.9-5.9c8.3-6.2,20-17.2,20.5-23.7
				c-3.3-11.3-25-27.7-30-55.3c0,0-6.3,13.7,19.3,54.7c-0.7,7-11,19.7-22,22c0,0-15.7,1-19-0.7c-3.1-1.5-10-11.5-14.3-20.8
				c12.4-0.5,24.7-3.3,29.6-9.2c9.7-11.7,4.3-21.7,4.3-21.7s-8-19.3-11.7-24.3c-3.3-8.7-7.7-29.7-6.7-36.7c0,0-5.7,18.7,1.7,36.3
				s11.8,20.4,12,27.2c0,5.5-1,10.2-4,12.2s-25.3,13.3-46.7,7c0,0-3-0.7-5-7.3s-13.7-42.7-13.3-58.3c2.1-15.7,7.2-29.5,9.2-34.4
				c33.7-2.5,40.1-19.6,40.1-19.6s-0.7-3-6.7,1.7c-17,8.7-43.3,9.3-48,7.7c-4.7-1.7-15.7-21.7-9.3-32.7c7-8.7,42.7-18.7,42.7-18.7
				s18-0.7,40,15.7c15.3,16,19.3,43,25,59c1.5-6.1,1.7-12.2,1.2-18.1l0.2,0.1c0,0,14.3,26.3,12,58.3
				C218.2,452,242.8,494,242.8,501.7z M246.1,386c-0.5,6-6,8.8-6,8.8l-2.3,0.3c-1.3-8-5.2-17.9-9-25.4c4,13.6,2.4,26,0.4,34
				c0-0.3,0-0.7,0-1c-0.3-10.1-10.2-40.5-22.1-60.8c4,7.7,12.8,36.4,16.8,54.5c2.5,11.5,0.2,17.9-2.3,21.2c-2.3-11.9-7-24-16.7-30.8
				c-4-19.1-16-35.3-23.1-43.1c-10-11-36-15-42-15.7c-3.8-0.4-19.2,3.8-33.7,11c-3.7-5.1-3.9-11.3-3.9-11.3c27-17,54.4-11.7,85-5.3
				c-36.3-14.5-61.5-10.3-76.1-4.4c4.1-31.5,5.3-35.4,18.8-50.2c28.5-16.8,75-8.2,91.5,0.8s21.5,38.2,26,52.2S246.6,380,246.1,386z"
				/>
			<path class="st1" d="M334.5,280.3c0,0,0,0-7.7,4.7c31,43.3,10.7,102,10.7,102c0-13.3-15.3-29.7-26-31
				c-10.7-1.3-16.3,10.3-16.3,10.3c9.3-11.3,40.3-9,39.3,39C372.2,340,334.5,280.3,334.5,280.3z"/>
		</g>
		<path class="st1" d="M343.5,489c0.3-1,12.3-40,11.7-63.3c-2.7,2-6.7,4.7-6.7,4.7s20.7-36,22.3-45.7c0,0,3,16.3-9,32.7
			c0,0,2.3,33-1.7,42.7c-1.3-14.3-2.7-18.3-2.7-18.3s-2.7,32-5,38C350.2,485.7,343.5,489,343.5,489z"/>
		<path class="st1" d="M334.2,297.7c0,0,53,19,85.3,72c-1.7,14-14,48-16.7,51.7c5.3,4.7,9.7,10,9.7,12.3c0,2.3-11.7,18.7-15.3,20.3
			c4.7,1.3,7,4.3,7,4.3l-6.3,4.3c0,0-1-4-3.3-5c-2.3,1.3-8,3-8,3s19.3-21,19.7-26.7s-6.7-11.3-11.3-10c13-20.3,18.7-48,18.3-54
			c0,0-29.3-40.7-72.3-63.7L334.2,297.7z"/>
	</g>
	<path class="st2" d="M292.6,383.7c-2.9-2.8-6.8-1-8.1,2.4c-0.1,0.2-0.1,0.3-0.2,0.5c-0.6,1.8-0.8,3.8-0.5,5.5c0.1,1,0.5,2.2,1,3.4
		c0.1,0.2,0.2,0.3,0.2,0.5c0.9,1.6,2.1,3.1,3.8,3.5c3.8,1,6.1-3.2,6.6-6.3C296,389.9,295.1,386,292.6,383.7z"/>
</g>
</svg>
