<?xml version="1.0" encoding="utf-8"?>
<!-- Generator: Adobe Illustrator 19.2.1, SVG Export Plug-In . SVG Version: 6.00 Build 0)  -->
<svg version="1.1" id="Layer_1" xmlns="http://www.w3.org/2000/svg" xmlns:xlink="http://www.w3.org/1999/xlink" x="0px" y="0px"
	 viewBox="0 0 558.2 593.5" style="enable-background:new 0 0 558.2 593.5;" xml:space="preserve">
<style type="text/css">
	.st0{fill:#FFFFFF;}
	.st1{fill:#8E8F9F;}
	.st2{fill:#04047a;}
</style>
<g>
	<path class="st0" d="M283,89.8C169.9,89.6,78.2,179,78.2,289.3s91.7,200,204.8,200.2S487.8,400.4,487.8,290S396.1,90,283,89.8z"/>
	<g>
		<g>
			<g>
				<path class="st1" d="M123.7,405c11.6-13,28.2-21.8,38.5-36c1.8-2.5-2.2-5.6-4.3-3.3c-6.2,6.6-12.7,12.7-19.3,19
					c-5.9,5.6-13.5,11.2-18,18C119.4,404.5,122.2,406.7,123.7,405L123.7,405z"/>
			</g>
		</g>
		<g>
			<g>
				<path class="st1" d="M151.1,276.1c1.2-3.5,3-6.8,4.1-10.4c0.9-2.8,2.6-5.8,3.1-8.7c0.3-1.6-0.4-3.4-2.2-3.8
					c-10.8-2.5-21.8-3.3-32.8-4.7c-3.5-0.4-4.3,5.6-0.8,6.2c5.4,0.9,10.8,1,16.2,1.9c5.2,0.9,10.5,1.6,15.7,2.6c-0.8-1-1.5-2-2.3-3
					c-0.1,2.7-1.8,6.2-2.4,9c-0.8,3.5-2,6.9-2.3,10.5C147.3,277.8,150.5,278,151.1,276.1L151.1,276.1z"/>
			</g>
		</g>
		<g>
			<g>
				<path class="st1" d="M183.3,260.2c8.2-12.5,14.4-26.5,21.7-39.6c1.3-2.2-2.2-4.2-3.4-2c-7.4,13.1-14.6,26.8-20.4,40.7
					C180.7,260.5,182.6,261.2,183.3,260.2L183.3,260.2z"/>
			</g>
		</g>
		<g>
			<g>
				<path class="st1" d="M187.8,281.7c14.5-27.9,30.9-54.7,46.9-81.7c1.1-1.8-1.8-3.5-2.9-1.7c-16.1,26.9-32.4,53.9-46.1,82.3
					C185.2,281.9,187.1,283,187.8,281.7L187.8,281.7z"/>
			</g>
		</g>
		<g>
			<g>
				<path class="st1" d="M199.7,277.5c3.4-4,5.4-9,7.8-13.7c3.1-6,6.4-11.9,9.7-17.8c6.4-11.6,12.9-23.1,19.5-34.6
					c1-1.8-1.7-3.4-2.7-1.6c-6.3,10.9-12.3,22-18.2,33.1c-2.9,5.4-5.8,10.8-8.7,16.2c-2.9,5.4-5.1,11.8-9.1,16.6
					C196.9,277,198.7,278.7,199.7,277.5L199.7,277.5z"/>
			</g>
		</g>
		<g>
			<g>
				<path class="st1" d="M150.2,251.2c-0.1,0-0.2-0.1-0.3-0.1c0.3,0.8,0.6,1.5,0.9,2.3c5.9-8,11.6-16.2,17.7-24
					c5.4-6.8,11.8-13.4,15.7-21.2c1.2-2.5-2.2-4.5-3.7-2.2c-10.4,15.4-23.9,29.1-32.3,45.8c-0.6,1.2,0.4,2.6,1.7,2.3
					c0.1,0,0.2-0.1,0.3-0.1C151.5,253.6,151.6,251.5,150.2,251.2L150.2,251.2z"/>
			</g>
		</g>
		<g>
			<g>
				<path class="st1" d="M179,233.4c0.1-0.6,0.2-1.2,0.3-1.8c0-0.7-0.5-1.3-1.1-1.4c-1.1-0.3-2.1,0.3-2.8,1.1c-0.8,1-1.3,2.1-1,3.4
					c0.1,0.7,0.8,1.3,1.5,1.5c2.5,0.7,5.4-2.1,5.2-4.6c-0.1-1.3-1.2-2.9-2.7-2.7c-1.4,0.1-2.7,0.7-3.7,1.8c-1.1,1.3-1.6,2.9-1.1,4.6
					c0.6,1.8,2.6,2.7,4.4,1.8c0.9-0.5,1.5-1.2,2.1-2c0.3-0.4,0.5-0.7,0.8-1.1c0.4-0.8,0.5-1.3,0.6-2.2c0.1-0.9-0.5-1.9-1.2-2.4
					c-0.8-0.6-1.7-0.8-2.7-0.6c-0.9,0.2-1.6,0.7-2.3,1.3c-0.8,0.7-1.2,2.1-0.8,3.1c0.4,1,0.9,1.7,1.9,2.1c0.7,0.3,1.5,0.4,2.2,0.1
					c-1-1.7-2-3.5-3-5.2c-0.1,0.1-0.2,0.2-0.3,0.3c-1.1,1.2-1.2,3.2,0,4.4c1.3,1.2,3.1,1.1,4.4,0c0.1-0.1,0.2-0.2,0.3-0.3
					c1-0.9,1.2-2.7,0.5-3.8c-0.8-1.2-2.1-1.8-3.5-1.4c0,0-0.1,0-0.1,0c0.8,0.1,1.6,0.2,2.4,0.3c0,0,0,0-0.1,0c0.5,0.6,1,1.2,1.4,1.9
					c0,0,0-0.1,0-0.1c-0.5,1.2-1,2.4-1.4,3.5c0.1-0.1,0.2-0.2,0.3-0.3c0.2-0.1,0.6-0.2-0.2,0.1c-1.3-1-2.6-2-3.9-3
					c0-0.9,0.1-0.7,0-0.4c-0.1,0.4,0.2-0.4,0.2-0.4c0,0.2-0.3,0.6-0.4,0.7c-0.1,0.1-0.1,0.2-0.2,0.3c0.1-0.1,0.5-0.6,0.1-0.2
					c-0.1,0.1-0.2,0.2-0.2,0.2c-0.3,0.3,0.6-0.4,0.3-0.2c1.5,0.6,2.9,1.2,4.4,1.8c-0.1-0.1-0.1-0.5-0.1,0c0,0.3,0,0.3,0,0.1
					c0,0.2,0,0.3-0.1,0.5c0-0.1,0.1-0.3,0.1-0.4c0-0.2-0.3,0.6-0.1,0.2c0.2-0.3-0.1,0.1-0.2,0.2c0,0,0.5-0.4,0.1-0.1
					c-0.4,0.3,0.1,0,0.1,0c-0.1,0.1-0.7,0.2-0.1,0.1c-1.1-0.6-2.2-1.3-3.3-1.9c-0.2-0.8-0.1-0.6-0.1-0.3c0,0.4,0-0.4,0-0.3
					c0.1,0.1-0.3,0.9-0.1,0.5c0.2-0.5-0.1,0.1-0.1,0.1c0.1-0.1,0.1-0.2,0.2-0.3c0,0.1-0.1,0.1-0.1,0.1c0,0-0.1,0.1-0.1,0.1
					c0.1-0.1,0.2-0.1,0.3-0.2c0,0-0.1,0-0.1,0.1c0.2-0.1,0.5-0.2,0.7-0.2c0.6,0.4,1.3,0.7,1.9,1.1c-0.2-0.3,0.1,0.4,0.1,0.2
					c0-0.1,0-0.2-0.1-0.3c-0.1-0.3,0,0.3,0,0.1c0,0,0-0.3,0-0.3c0,0-0.1,0.4,0,0.1c-0.2,0.4-0.1,0.1,0,0c0.1-0.1-0.3,0.2,0,0
					c-0.2,0.1-0.3,0.2-0.5,0.2c-0.4-0.2-0.9-0.5-1.3-0.7c0.2,0.3,0.2,0.4,0.2,0.8C176.5,234.5,178.7,234.8,179,233.4L179,233.4z"/>
			</g>
		</g>
		<g>
			<g>
				<path class="st1" d="M166.3,247.4c0-0.1,0.1-0.2,0.1-0.3c-0.2,0.2-0.4,0.5-0.5,0.7c0.5-0.2,0.8-0.6,0.9-1.1
					c0.2-0.7-0.2-1.5-0.9-1.8c-0.7-0.3-1.4,0-1.9,0.6c0,0-0.3,0.4-0.1,0.2c-0.1,0.1-0.2,0.3-0.3,0.4c-0.1,0.1-0.2,0.3-0.3,0.4
					c-0.1,0.1-0.4,0.4-0.1,0.1c-1,1.1-0.5,2.7,0.9,3.2c1.1,0.4,2.2-0.1,3.1-0.8c0.4-0.3,0.8-0.7,1.1-1.2c0.4-0.6,0.5-1.1,0.6-1.8
					c0.1-0.7-0.5-1.8-1.2-2.1c-0.8-0.3-1.5-0.5-2.4-0.3c-0.6,0.2-1.3,0.6-1.7,1.1c-0.8,0.9-1.2,2-1.3,3.2c-0.1,0.9,0.6,1.9,1.4,2.4
					c0.9,0.5,1.8,0.4,2.8,0c0.7-0.3,1.4-0.9,1.8-1.5c0.9-1.1,1.5-2.5,0.9-3.9c-0.3-0.9-0.8-1.5-1.7-1.9c-0.9-0.4-1.7-0.3-2.6,0.1
					c-1.3,0.7-1.9,2-2.6,3.2c-0.8,1.4-0.4,3.3,1.1,4.1c1.4,0.7,3.3,0.4,4.1-1.1c0.4-0.6,0.7-1.2,1-1.9c0.7-1.4,0.4-3.3-1.1-4.1
					c-1.5-0.8-3.2-0.3-4.1,1.1c-0.4,0.6-0.8,1.2-1.1,1.8c1.7,1,3.4,2,5.2,3c0.2-0.5,0.4-1.1,0.7-1.6c-0.1,0.2-0.2,0.5-0.3,0.7
					c0.1-0.2,0.2-0.5,0.3-0.7c0.1-0.2,0.4-0.4-0.2,0.2c0.3-0.3-0.6,0.4-0.2,0.1c-1.3-0.3-2.6-0.7-3.9-1c-0.2-0.5-0.2-0.6-0.2-0.4
					c0-0.3-0.1-0.5-0.1-0.8c0,0.1,0,0.2,0,0.2c0-0.3,0.1-0.5,0.1-0.8c-0.1,0.7,0.3-0.5,0.1-0.1c-0.2,0.4,0.5-0.6,0,0
					c-0.1,0.1-0.3,0.2-0.4,0.4c0.6-0.4,0.5-0.4-0.2,0.1c-0.1,0-0.1,0.1-0.2,0.1c1.5,0.4,3.1,0.8,4.6,1.2c-0.1-0.3,0.1,0.5,0.1,0.5
					c0-0.4-0.1,0.6-0.1,0.3c0-0.1,0-0.2,0.1-0.2c0.1-0.3,0.2-0.1-0.1,0.3c0,0,0.1-0.2,0.1-0.2c0,0-0.5,0.5-0.2,0.3
					c-0.1,0.1-0.6,0.3-0.2,0.2c0.1-0.1,0.1,0-0.2,0.1c-0.2,0.1-0.4,0.2-0.7,0.2c-0.8-0.6-1.6-1.2-2.4-1.8c0-0.2,0-0.3-0.1-0.5
					c0.1-0.4,0.1-0.6,0-0.4c0,0.1-0.1,0.4,0,0c0.1-0.4,0,0-0.1,0.1c0,0.1-0.3,0.4,0,0.1c0.3-0.3-0.2,0.2-0.2,0.2
					c0.1-0.1,0.2-0.1,0.2-0.2c-0.1,0.1-0.3,0.2-0.4,0.3c-0.1,0.1-0.4,0.3,0.1-0.1c1,0.6,1.9,1.1,2.9,1.7c0-0.4-0.1,0.2,0-0.2
					c0-0.1,0.1-0.3,0.1-0.4c0.1-0.3,0.2-0.6,0.3-0.9c-1-0.1-2-0.3-3-0.4c0.1,0.7,0.3,1.2,0.9,1.5c-0.2-0.2-0.4-0.5-0.5-0.7
					c0,0.1,0.1,0.2,0.1,0.3C164.6,248.4,166,248.4,166.3,247.4L166.3,247.4z"/>
			</g>
		</g>
		<g>
			<g>
				<path class="st1" d="M343.8,448.1c-1.2,0.1-1.7,0.3-2.6,1.1c-1.7,1.4,0.5,3.7,2.2,2.9c12.9-6,23.1-17.3,36.7-22.1
					c-0.8-1.8-1.5-3.6-2.3-5.4c-7.3,5-14.8,9.5-22.1,14.5c-6.7,4.6-13.4,9.7-20.5,13.7c1.4,1.4,2.9,2.9,4.3,4.3
					c1-1.4,2.1-2.5,3.4-3.7c2.9-2.8-1.4-7-4.4-4.4c-1.7,1.5-3.1,3.1-4.4,4.9c-2,2.7,1.8,5.8,4.3,4.3c7.1-4,13.7-9.2,20.4-13.8
					c7.2-5,14.9-9.4,21.9-14.7c3.1-2.3,0.5-6.7-3-5.1c-13.4,5.8-24.3,16.2-36.2,24.3c0.8,0.8,1.7,1.7,2.5,2.5
					c0.2-0.2,0.3-0.3,0.5-0.5C345.8,450.2,345.4,447.9,343.8,448.1L343.8,448.1z"/>
			</g>
		</g>
		<g>
			<g>
				<path class="st1" d="M431.6,306.9c-0.1,0-0.2-0.1-0.3-0.1c0.1,0.9,0.2,1.7,0.3,2.6c4.2-2.2,7.8-5.7,11.5-8.6
					c3.9-3,7.8-5.8,11.7-8.7c7.4-5.5,14.6-11.2,21.2-17.7c1.6-1.6-0.8-4-2.4-2.4c-13.4,12.7-28.7,23.9-43.3,35.1
					c-1.4,1.1-0.2,3.4,1.4,2.4c0.1-0.1,0.2-0.1,0.3-0.2C432.8,308.6,432.7,307.2,431.6,306.9L431.6,306.9z"/>
			</g>
		</g>
		<g>
			<g>
				<path class="st1" d="M442.9,315.6c13.7-10.3,27.3-20.3,40.1-31.8c1.6-1.4-0.7-3.8-2.4-2.4c-6.5,5.7-13,11.3-19.8,16.8
					c-6.4,5.2-13.3,9.9-19.4,15.6C440.6,314.7,441.8,316.4,442.9,315.6L442.9,315.6z"/>
			</g>
		</g>
		<g>
			<g>
				<path class="st1" d="M463.5,298.9c6,7.1,9,16.3,15.2,23.3c1.4,1.6,3.8-0.7,2.4-2.4c-3.6-4.1-6.2-8.7-9-13.2
					c-2-3.3-3.9-7.3-7-9.6C463.8,296.2,462.7,298,463.5,298.9L463.5,298.9z"/>
			</g>
		</g>
		<g>
			<g>
				<path class="st1" d="M453,353.3c-0.1-0.6-0.2-0.8-0.5-1.2c-0.9-1.3-3-0.5-2.6,1.1c0.7,2.8,2.8,4.9,4.2,7.4
					c1.5,2.7,2.6,5.7,4.5,8.1c1.3,1.6,4.1,0.2,4-1.7c-0.1-2.8-2.9-5-4-7.5c-1.5-3.2-2.4-7.1-5.1-9.6c-1.9-1.8-5.3,0.5-3.7,2.9
					c1.7,2.6,2.8,5.5,4.2,8.3c0.6,1.3,1.2,2.6,2,3.7c0.5,0.7,1.9,1.9,2,2.7c1.3-0.8,2.6-1.5,3.9-2.3c-2-1.8-3.2-4.9-4.7-7.1
					c-1.5-2.2-3.5-3.9-4.7-6.2c-0.6,0.6-1.3,1.3-1.9,1.9c0.1,0.1,0.1,0.2,0.2,0.3C451.5,355.4,453.3,354.6,453,353.3L453,353.3z"/>
			</g>
		</g>
		<g>
			<g>
				<path class="st1" d="M357.3,150.1c3.4-3.8,10.1-6.2,14.6-8.6c2.4-1.3,4.7-2.7,7-4c2.1-1.2,5-3.5,7.4-3.8c-0.9-0.5-1.8-1-2.6-1.5
					c0.4,2.2-2.7,6.3-3.5,8.2c-0.9,2.2-2.2,4.4-2.4,6.8c-0.1,1.8,1.7,2.8,3.3,2.5c4.4-1,8.9-4.4,12.9-6.3c2.5-1.2,5-2.5,7.5-3.6
					c2.6-1.1,5.3-1.3,7.9-2.3c1.2-0.5,2.1-1.6,1.7-3c0-0.1-0.1-0.2-0.1-0.4c-0.4-1.5-2.6-2.3-3.7-1c0.2-0.3-4,0.1-4.8,0.4
					c-2.4,0.8-4.7,2.2-7,3.3c-2.5,1.2-5,2.4-7.5,3.7c-2.6,1.3-5.6,3.5-8.3,4.3c1.1,0.8,2.2,1.7,3.3,2.5c0.1-5.3,6.6-10.7,4.9-16.1
					c-0.3-1-1.5-1.9-2.6-1.5c-2.2,0.9-3.9,2.5-6,3.7c-3.2,2-6.5,3.9-9.8,5.8c-4.5,2.6-11.2,5.1-14.3,9.4
					C354.2,149.7,356.3,151.2,357.3,150.1L357.3,150.1z"/>
			</g>
		</g>
		<g>
			<g>
				<path class="st1" d="M305.7,284.4c1.9-3.5,3.1-7.3,4.9-11c1.7-3.5,3.3-8.4,6.3-10.9c-1.2-0.2-2.4-0.3-3.6-0.5
					c3.2,5.4,2.4,14.1,2.7,20.2c0.3,6.5,2,12.8,2.5,19.3c0.2,3,4.6,3,4.7,0c0.3-7.6-1.8-15.2-2.3-22.8c-0.4-5.7-0.2-14.1-3.6-19
					c-0.8-1.2-2.5-1.6-3.6-0.5c-2.8,2.8-4,6.9-5.5,10.4c-1.9,4.3-3.2,8.8-5.1,13.1C302.1,284.6,304.7,286.3,305.7,284.4L305.7,284.4
					z"/>
			</g>
		</g>
		<g>
			<g>
				<path class="st1" d="M142.3,427.1c0.1,0,0.3,0,0.4,0c0.7,0,1.2-0.5,1.5-1.1c0.9-2.6,1.8-5.1,2.6-7.7c0.5-1.4,1-5.5,2.3-6.5
					c-1-0.1-2-0.3-3-0.4c2.5,2.5,3.9,9.1,8.2,9.3c3.5,0.1,5.5-4.3,7-6.8c3-5,6.4-9.6,9.3-14.6c3.8-6.6,7.3-13.4,10.8-20.1
					c1.8-3.4-3.3-6.5-5.2-3.1c-5.4,10-10.7,20.1-17,29.6c-1.8,2.7-3.6,5.4-5.1,8.2c-0.6,1.1,0.6,0.1,0.4-0.4
					c-0.3-0.8-1.1-1.7-1.6-2.5c-1.1-1.4-2.1-2.6-3.6-3.5c-1.2-0.8-2.6-0.1-3.4,0.9c-1.5,1.9-1.8,4.7-2.3,7
					c-0.8,3.4-1.9,6.8-2.2,10.2c0.4-0.5,0.8-1,1.1-1.5c-0.1,0-0.3,0.1-0.4,0.1C140.4,424.7,140.6,427.2,142.3,427.1L142.3,427.1z"/>
			</g>
		</g>
		<path class="st1" d="M411.6,319.2c-0.1-0.8-0.2-1.7-0.3-2.5c-0.3-1.2-0.8-2.3-1.7-3.2c-0.4-0.7-1-1.3-1.7-1.7
			c-0.9-0.8-2-1.4-3.2-1.7c-0.3,0-0.6-0.1-0.9-0.1c-2.5-0.7-5.2-0.5-7.5,0.9c-1.4,0.8-2.9,2.3-3.7,3.7c-0.5,0.9-0.9,1.8-1.1,2.7
			c-0.3,1.4-0.4,2.8-0.2,4.2c0,0.1,0,0.2,0,0.3c0.2,1.1,0.6,2.2,1.2,3.2c0.2,0.3,0.4,0.6,0.6,0.9c0.1,0.1,0.1,0.2,0.2,0.3
			c0.1,0.1,0.2,0.3,0.4,0.4c0,0,0.1,0.1,0.1,0.1c2.3,2.5,5.7,3.7,9,3.2c0.4-0.1,0.9-0.1,1.3-0.3c1.6-0.5,3.1-1.3,4.3-2.5
			c1.2-1.2,1.6-1.9,2.1-3.3c0.5-1.1,0.7-1.6,0.8-2.6C411.6,320.7,411.7,320,411.6,319.2z"/>
		<path class="st1" d="M436.8,330.4c-5-2.7-10.2-5.3-15.6-7.2c-2.3-0.8-3.7,2.7-1.6,3.9c4.9,2.7,9.6,5.3,14.2,8.4
			C437,337.6,440.2,332.2,436.8,330.4z"/>
		<path class="st1" d="M438.3,344.7c-5.6-3.2-11.1-6.5-16.7-9.8c-3-1.8-5.6,2.7-2.7,4.6c5.4,3.6,10.7,7.2,16.1,10.8
			C438.5,352.7,442,346.9,438.3,344.7z"/>
		<path class="st1" d="M433.6,354.5c-7.5-4.6-15.4-8.6-23-13.1c-2.9-1.7-5.4,2.7-2.7,4.5c7.3,4.9,14.6,10,22.4,14.1
			C434,361.9,437.2,356.6,433.6,354.5z"/>
		<path class="st1" d="M461.8,324.2c-1.8-2.3-4.9-3.7-7.3-5.1c-3.8-2.3-7.7-4.5-11.5-6.7c-7.5-4.2-15-8.2-22.7-12
			c-3.2-1.6-6.5-3.2-9.7-4.7c13.1-2.3,22.1-4.9,34.5-9.1c3.2-1.1,1-6,0.2-5.8c-13.3-32.4-25-65.4-37.3-98.1c-3-8-5.9-16-8.9-24
			c-0.9-2.5-1.7-5.3-4.3-6.5c-3.1-1.5-7.2,0.2-10.3,1c-17.3,4.2-34.6,8.2-51.8,12.9c-4.7,1.3-2.7,8.3,2,7.2
			c10-2.2,19.9-4.7,29.8-7.2c9-2.2,18.2-5.3,27.3-6.9c1,1.5,1.7,4.5,2.2,5.9c1,2.4,1.9,4.9,2.9,7.3c2.2,5.5,4.3,11,6.5,16.5
			c4.2,10.7,8.5,21.4,12.7,32.1c8.1,20.4,15.8,41.2,25.6,60.9c-12.1,3.9-24.4,7.2-36.4,11.2c-2.5-1.2-5-2.5-7.6-3.1
			c-5.2-1.3-11.5,8.8-12,9c-9.2,3.5-18.6,6.4-27.9,9.5c-1.2-4-2.6-8-3.9-11.9c-1.5-4.6-2.4-9.4-4.2-13.8c-0.6-1.5-1.9-2.1-3.1-2
			c-5.5-14.4-10.5-28.7-13.8-43.9c-0.7-3.1-5.3-1.8-4.7,1.3c3,15.9,8.1,32.3,16,46.6c1,5.5,3.2,11.4,5.8,16.9c0.9,2.9,2,5.8,3.2,8.6
			c-1.2,1-0.4,3.2,1.4,2.8c9.8-2.2,19.4-5.2,28.9-8.4c-4.1,6-8.2,11.9-12.1,18c-0.9,1.4,1.3,2.6,2.2,1.3c4-5.7,7.9-11.4,11.9-17
			c2-2.8,4.1-5.6,6.2-8.4c1.3-1.7,3.3-4,5.7-4.1c1,0,4.2,2.1,5.1,2.6c12.4,6.3,24.8,12.8,36.9,19.8c2.7,1.6,5.5,3.2,8.2,4.8
			c3.2,2,9.5,4.1,9,8.7c-0.3,2.6-2.9,6.3-4.1,8.7c-1.7,3.5-3.3,6.9-5,10.3c-6.2,12.6-12.9,24.9-19.5,37.3c-1.8,3.3,3.1,6.2,5,2.9
			c9.1-15.4,17.2-31.3,24.9-47.4C460,337.4,465.9,329.5,461.8,324.2z"/>
		<path class="st1" d="M360.2,260.8c-1.7-5.6-3.3-11.3-5.5-16.6c-1.8-4.4-8.7-2.9-7.4,2c1.6,5.6,3.9,11.1,6,16.5
			c1.7,4.4,3.1,10,6.9,13c0.8,0.7,2.3,0.6,2.6-0.7C363.7,270.4,361.5,265.3,360.2,260.8z"/>
		<path class="st1" d="M370.4,255.9c-1.9-5.3-3.8-10.5-5.8-15.7c-1.8-4.7-9.5-2.6-7.6,2.1c2.1,5.2,4.2,10.4,6.4,15.5
			c2.1,4.8,4,10.3,7.9,13.9c1,0.9,2.5,0.2,2.6-1.1C374.2,265.6,372,260.5,370.4,255.9z"/>
		<path class="st1" d="M381.1,251.9c-1.7-4.5-8.5-2.9-7.4,2c1,4.3,3.4,9.6,6.3,13c1.1,1.4,3.1,0.1,3.2-1.3
			C383.6,261.5,382.6,255.8,381.1,251.9z"/>
		<path class="st1" d="M384.7,230.8c-1.9-4.7-9.6-2.6-7.7,2.1c4.1,10.2,7.7,22,14.5,30.8c1.1,1.4,3.7,0.2,3.5-1.5
			C394,251.5,388.7,240.8,384.7,230.8z"/>
		<path class="st1" d="M417.1,267.8c-18.8,6.1-37.4,12.7-56.3,18.7c-2.7,0.8-1.6,4.9,1.2,4.2c19.1-5,38.2-10.1,56.9-16.6
			C422.8,272.7,421.2,266.4,417.1,267.8z"/>
		<path class="st1" d="M418.4,276.2c-14.6,4.6-29.1,9.5-43.6,14.4c-2.1,0.7-1.3,4.1,0.9,3.4c14.6-4.4,29.2-8.9,43.8-13.6
			C422.3,279.6,421.1,275.4,418.4,276.2z"/>
		<path class="st1" d="M393,209.4c-18.6,6.4-37.2,12.8-55.4,20.1c-1.9,0.8-1.2,3.8,0.9,3.1c18.7-5.7,37.3-12.4,55.7-19
			C396.8,212.7,395.7,208.5,393,209.4z"/>
		<path class="st1" d="M372.5,207.5c-2.3-10.3-5.2-20.8-8.3-30.8c-1.4-4.6-8.3-2.7-7.2,2c2.4,10.2,6.5,21.3,11.9,30.3
			C370,210.9,372.9,209.6,372.5,207.5z"/>
		<path class="st1" d="M380.6,193.6c-1.1-4-1.8-8.3-3.3-12.2c-1.6-4.3-7.6-2.6-6.8,1.9c1.3,7.4,5.1,16.6,9.8,22.6
			c0.9,1.1,3.1,0.2,2.9-1.2C382.8,200.9,381.6,197.2,380.6,193.6z"/>
		<path class="st1" d="M390.3,188.4c-0.5-2.3-0.8-4.7-1.7-6.9c-1.1-2.6-5.7-1.3-5.4,1.5c0.3,2.4,1.2,4.6,2.1,6.8
			c0.7,1.9,1.4,4.4,3,5.7c0.9,0.7,2.4,0.6,2.7-0.7C391.6,192.7,390.8,190.4,390.3,188.4z"/>
		<g>
			<path class="st2" d="M283,85.8C167.6,85.6,74.1,176.8,74.1,289.3s93.5,204,208.9,204.2S491.9,402.6,491.9,290S398.3,86,283,85.8z
				 M283,479.4C176,479.3,89.3,392.8,89.3,286.4S176,93.8,283,93.9S476.6,180.6,476.6,287S389.9,479.6,283,479.4z"/>
			<g>
				<path class="st0" d="M276.4,571.2c-23.1,0-40-3.4-45.5-5c-1.4-4.8-4.6-15.3-4.7-15.4l-0.4-1.3l-1.3,0.3c-5,1.2-9.8,4.1-13.8,6.5
					c-2.2,1.3-4.1,2.5-5.5,3c-7.4-1.6-45.9-19.3-48.1-29.4c6.9-6.4,16.6-32.6,23.3-52.1c0.6-1.9,1.2-3.5,1.3-3.8
					c1-2.3,0-7.6-0.3-9.2c0.2-1.9,0.6-6-0.2-7.6c-0.4-0.7-1.2-1.8-2.3-3.2c-1.2-1.5-2.6-3.3-3.6-4.9c0.7-3.1-0.3-8.5-0.4-9.1l0-0.2
					l-0.1-0.2c-0.2-0.5-1.1-2.8-2.1-5.8c-2.8-8-8.1-22.9-14.4-37.1l-0.2-0.5l-0.5-0.2c-0.9-0.4-5.4-4.7-9.1-8.5l0,0
					c0,0-1.2-1.5-1.8-4.2l-0.1-0.3l-0.2-0.2c-1-1.3-22.5-18.5-23.4-19.3c-1.3-1-3.3-1.6-5.3-2.2c-2-0.6-4.1-1.2-5.8-2.3
					c-2.7-1.6-8.9-10.6-11.2-14.1c-0.4-0.8-2.1-4.4-5.1-4.4c-0.8,0-2.6,0.2-5.2,0.4c-3.7,0.4-8.7,0.8-11.7,0.8c-1.6,0-2-0.1-2.1-0.2
					c-1.2-0.5-2.1-4.7-1.6-7.8l0.7-4.2l-3,3c-0.5,0.5-1.8,0.8-3.6,1.1c-1.3,0.3-2.9,0.6-4.8,1.1c-3.1-0.2-12-6.7-17-10.9l-0.4-0.3
					c0,0-1.3,0-1.7,0c-17.7,0-29.1-4.1-32.2-7.9c-0.4-0.5-0.6-1-0.6-1.4c4.3-6.4,10.4-12.5,17.9-18.2l1.1-0.8l-0.8-1.1
					c-2.7-3.9-8.7-14-6.4-23.3l4.2-4.6l0.1-0.3c0.1-0.2,5.4-22,15.6-29.4c8.5-6.2,51.5-21.9,71.2-28.2l1.1-0.3l-0.1-1.1
					c-0.4-5.2,2.8-10.9,8.2-14.6c3.3-2.3,7.2-3.7,11-4l1.8-0.2l-0.6-1.7c-3.3-8.7-0.1-35.4-0.1-35.7l0.1-0.5l-0.3-0.4
					c-1.4-2-3.8-5.7-4.1-7.3c-0.4-2,1.4-10.8,3.5-12.9c1-1,5.6-3.6,10.1-6.2c3.8-2.2,8.2-4.7,11.7-6.9l1.9-1.2l-1.9-1.2
					c-3.8-2.4-12.6-8.7-14.5-16.8c5.6-3.8,13.4-6.4,13.5-6.4l0.9-0.3l0.1-0.9c0-0.4,3-38.5,15.4-48.4c0.1-0.1,0.2-0.1,0.3-0.1
					c2.3,0,6.7,8.6,9.5,16.7l0.8,2.3l1.6-1.9c0.2-0.2,16.2-19,40.8-25.2c0.1,3.1-0.1,8.3-1.5,10.5c-0.3,0.5-0.3,1.1-0.1,1.6
					c0.5,0.9,1.6,1,3,1c1.9,0,5-0.2,9.3-0.5c8.2-0.6,20.5-1.4,34.5-1.4c56.1,0,92.2,13.4,107.3,39.8l-12.5,11.9l3.8,12.7l1.2-0.2
					c5.3-0.9,11.1-1.8,14.2-2.2c-2.8,7.2-11.7,29.7-17.7,36.3c-2.3,1.7-7.9,5.1-16.2,9.7l-0.5,0.3l-0.2,0.5
					c-1.2,3.6-3.3,10.2-3.3,14c0,2.7,1.7,7.3,3.6,12.1c1.6,4.2,3.3,8.5,3.3,10.6c0,7.8-5.3,68.1-24.9,77.1
					c-1.7,0.3-14.8,2.4-24.4,2.4c-0.8,0-1.7,0-2.5-0.1l-1.9-0.1l0.5,1.9c0.1,0.3,1.9,7.1,2.9,9.9l0.3,1l1.1,0
					c3.8-0.2,10.7-0.6,15.1-1.3c4.4-0.8,15.7-2.2,26.5-2.2c7.4,0,13.1,0.6,17.2,1.9c-8.2,9.1-21.2,22.2-25,23.1l-5.2,1.3l5.2,1.4
					c10.9,3,47.6,17.6,52.7,23.5c5.2,5.9,6.2,12.1,6.2,12.2l0.1,0.5l42,40.6l0.1-1.9l1.5,2.2c5.9-3.4,11.9-6.6,18-9.6
					c1.1,3.9,3.7,14.3,2.9,20l-0.1,0.9l0.8,0.5c4.6,2.6,7.2,4.8,7.8,6.7c-0.1,1.6-1.7,4.3-3.1,6.6c-1.6,2.7-2.5,4.3-2.5,5.5
					c-0.2,1-1,2.2-2.4,3.3l-1.1,0.9l0.9,1.1c10.2,12.1,16.9,21.7,17.6,25.5c-2.1,3.3-14.9,23.4-16.2,30.2
					c-2.9,6.9-46.1,36.3-85.3,56.2l-0.8,0.4l0,0.9c0,0.8-0.1,18.8-19.8,21.2l-5.2,0.7l3.6,1.5C332.6,565.9,304.8,571.2,276.4,571.2z
					 M350.2,411.4c-2.1,2.4-8.7,49.8-7.8,55.7c0.4,2.4,0.7,4.3,1,5.8c0.5,2.5,0.8,4.2,0.7,5.5c-0.1,0.6-0.4,1.7-1.9,4.1l-0.6,0.9
					l0.8,0.8c2.6,2.6,7.1,7.2,8.3,8.3c0.9,0.8,2.4,1.3,4,1.7c1.6,0.5,3.5,1,4.1,1.9l1,1.4l1.2-1.2c1.2-1.2,29.2-29.4,34.3-37.3
					l1.4-2.1l-2.5-0.1c-2.4-0.1-3.7-3-4.9-6.4c-0.7-1.9-1.2-3.3-2.2-3.9l-0.2-0.1l-0.2,0c-4.2-0.8-8.3-2.3-8.8-3.2
					c-0.5-1,0.3-5.2,1.3-8.4l0.4-1.3l-1.3-0.5c-6.6-2.4-14.3-5.8-15.2-7c-0.3-0.5-0.9-1.3-1.6-2.3c-5.2-7.6-8.2-11.8-9.1-12.6
					l-0.4-0.3l-0.5,0h-0.6L350.2,411.4z M146.1,271.3c0.1,0,0.3,0,0.4,0c1.7,0.1,3.1,2.7,3.5,3.5l1,2.4l1.5-2.2
					c0.3-0.5,1.4-1.7,2.6-1.7c0.2,0,0.3,0,0.5,0.1c1.1,0.3,1.4,0.8,1.4,1l-0.6,2l2.1-0.5c0.7-0.1,7.2-0.8,9.6-2.4
					c0.7-0.5,1.3-1,1.9-1.6c1.2-1.1,2.3-2.1,4.6-2.4c0.3,0,1.2-0.1,3.5-0.1c9.6,0,29,1,31.3,1.8c0.8,0.3,1.1,0.8,1.2,0.8l1.1,2.1
					l1.3-2c0.1-0.2,3.5-5,3.4-9.9c0.2-0.1,0.9-0.5,2.9-0.5c1.8,0,4.3,0.3,7.4,0.8l1.1,0.2l0.5-1.3c0.1-0.4,0.3-0.7,0.4-1.1
					c0.2-0.7,0.4-1.4,0.6-2.1l0.4-1.3l-1.3-0.4c-7-2-13.7-4.9-19.7-8.6c-12-11.7-13.1-26.1-13.1-26.3l-0.1-2.3l-2,1.2
					c-0.1,0-7.5,4.2-26.1,4.2c-1,0-1.9,0-2.9,0l-0.9,0l-0.4,0.8c-2,4-9.3,13.4-18,15.3c-5.3,0.7-15.5,14-17.5,16.6l-0.7,0.9l0.8,0.9
					c0.8,0.9,2,2.5,2.1,3.4c0.2,1.1-0.2,6.7-0.5,9.9l-0.3,3.4l2.6-2.3c0.4-0.3,1-0.7,1.3-0.7c0,0,0.2,0.4,0.3,1.4l0.1,2.5l2.1-1.5
					C139.2,273.1,143.4,271.3,146.1,271.3z"/>
				<g>
					<path class="st2" d="M137.7,283.2c-3.3,2.3-11.7,13.2-13.3,24.7c0,0,10.1-21.1,21.5-24.7C142.6,280.6,141,280.9,137.7,283.2z"
						/>
					<path class="st2" d="M138.3,349.2c0,0-1.9-41,4.7-54.6C134.8,305,134.2,336.5,138.3,349.2z"/>
					<path class="st2" d="M463.1,418.5c1.1-0.9,2.6-2.4,2.9-4.2c0-2.2,5.6-9,5.6-12.4c-0.5-2-2.4-4.4-8.5-7.8
						c1-7.6-3.4-22.2-3.4-22.2c-7.1,3.4-13.6,6.8-19.6,10.3l0.1-0.1l-41.7-40.2c0,0-1-6.6-6.6-12.9c-5.6-6.3-43.6-21.2-53.4-23.9
						c5.9-1.5,27.1-25.1,27.1-25.1c-11.5-4.9-37.8-2-46.3-0.5c-3.5,0.6-9.2,1-15,1.3c-1-2.8-2.8-9.8-2.8-9.8
						c10.5,0.5,27.3-2.4,27.3-2.4c21.4-9.6,25.8-73.9,25.8-78.5s-6.8-17.8-6.8-22.7c0-3.6,2.2-10.3,3.3-13.5
						c6.5-3.6,13.7-7.8,16.5-9.9c7.4-8.1,18.9-39.1,18.9-39.1s-8.9,1.2-16.6,2.6l-3.2-10.7l12.7-12c-32.5-59.5-157-36.4-154.7-40
						c2.3-3.6,1.6-13,1.6-13c-26.3,5.9-43.2,26-43.2,26s-7.2-20.8-12-17.2c-13,10.4-15.9,49.4-15.9,49.4s-8.8,2.9-14.6,7.2
						c1.6,9.1,11.5,16.2,15.4,18.6c-8.1,5.1-20,11.3-22,13.3c-2.4,2.4-4.4,11.7-3.9,14.1s4.4,7.8,4.4,7.8s-3.4,28.8,0.5,37.1
						c-13.6,6.4-15.4,16.5-15.6,17.9c-11.1,2.9-66.7,22.5-76.8,29.9c-10.7,7.8-16.1,30.2-16.1,30.2l-4.1,4.6
						c-2.7,10,3.7,20.7,6.5,24.8c-7.3,5.5-13.7,11.7-18.5,18.8c-1,4.4,11.2,11.5,35.3,11.2c0,0,13.7,11.5,18,11.2
						c5.4-1.5,8-1.5,9.3-2.7c-0.5,3.2,0.2,8.3,2.4,9.3s17.1-1,19.5-1c2.4,0,3.9,3.7,3.9,3.7s8,12.4,11.7,14.6
						c3.7,2.2,8.8,2.7,11,4.4c2.2,1.7,22.4,18,23.2,19c0.7,3.2,2.2,4.9,2.2,4.9s7.8,8,9.5,8.8c8.8,19.7,15.6,41,16.6,42.9
						c0,0,1.2,6.3,0.2,9c1.7,3.2,5.4,7.1,6.1,8.5c0.7,1.5,0,7.1,0,7.1s1.5,6.3,0.5,8.5c-1,2.2-16.1,49.2-24.9,55.8
						c0.7,11.5,43.9,30.5,49.7,31.4c3.9-1.2,11.7-7.6,19.5-9.5c0,0,3.7,11.7,4.9,16.1c10.2,3.2,70.7,14.6,130.7-11.5
						c-0.6-0.3-1.2-0.5-1.7-0.8c21.2-2.7,21-22.6,21-22.6c32.7-16.6,82.9-48.5,86.1-57c1.2-6.8,16.3-30.2,16.3-30.2
						C480.7,439.7,467.8,424.1,463.1,418.5z M456.4,377.7c2.7,8.8,3.2,10.4,2.3,19.1c-0.2,2.3,6.8,3.7,7,6.3
						c0.2,2.6-4.7,10.7-6.8,12.5c-2.1,1.8-19.2,4.4-66,38.5c-1.8-6.3-2.4-10.1-3.9-10.9c-1.5-0.8-6.2-1.1-8-3.7
						c0,0,20.7-29.7,49.6-48.4C438.6,385.9,447.3,380.1,456.4,377.7z M342.8,466.9c-1-6.3,6.3-55.6,7.6-54.6
						c1.2,1,8.8,12.2,10.5,14.6c1.7,2.4,15.8,7.6,15.8,7.6s-2.4,7.3-1.2,9.5c1.2,2.2,9.8,3.9,9.8,3.9c1.7,1,2.4,10.2,7.8,10.5
						c-5.1,7.8-34.1,37.1-34.1,37.1c-1.5-2.2-6.6-2.4-8.3-3.9c-1.2-1.1-5.8-5.7-8.3-8.2c1.1-1.7,2-3.5,2.2-4.7
						C344.8,476.2,343.8,473.3,342.8,466.9z M343.2,119c1.6-0.8,11-3.6,20.2-6.4c4.1-0.1,9.1-0.1,11.3,0.5c2.7,0.8-1.8,2.8-1.5,5.1
						c0.4,3.3,1.8,4.4,2.9,4.7c-3.2,6.9-7,14.2-10.2,17.2c-1,1-2.3,2-3.7,3.1c-0.1-0.2-0.3-0.4-0.4-0.8c-0.5-2-0.1-4.4,0.5-5.1
						l-4.9-1.6c-0.4-0.7-0.1-2,0.5-2.9c-2.7,0-10.1,0.7-10.1,0.7s8.5-7.2,9.9-14.5c-7.1,0.2-14.6,2.2-18.6,3.4
						C341.3,120.5,342.7,119.3,343.2,119z M337.6,123.8c5.5-1.6,14.1-4,18.9-4c-1.8,5.4-7.3,12.2-11.2,15.1c0,0,7.6-1.2,11.1-0.9
						c-0.1,2.7,1.3,3,1.3,3s2,1.2,3.3,1.1c-1.4,1.9-0.8,5.1-0.1,6c-6.4,4.7-15.4,9.9-19.2,12.1c0.6-4-0.4-9-7.4-7.4
						c-10.5,3.3-17,11.5-21,18.6c-0.8-2.5-2.5-4.7-5.4-6.1c-2.6-1.2-5.3-1.5-7.9-1.1C311.9,148.5,328.9,131.9,337.6,123.8z
						 M297.8,162.6c2.4-0.5,4.8-0.6,7.1,0.2c4.6,1.5,6.4,5.1,6.1,9.4c-0.5,1.1-0.9,2.1-1.3,3.1c-1.6-5.7-7.9-9.7-14.2-10.3
						C296.2,164.3,297,163.5,297.8,162.6z M286.9,174.3c0.1-0.4,2.8-3.4,7-7.7c7.6,0.3,15.5,6.5,13.4,14.2c-1.9,2.6-7.4,7.8-7.4,7.8
						C285.3,187.6,286.6,176.3,286.9,174.3z M276,259l-3.4-8.3c14.6-4.2,20.2-15.9,20.8-17.2c0.7-1.3-2.3-1.6-4.6-2.9
						c13-15.9,13.3-39.3,13.3-39.3s2.6-1,4.6-1.3c1-2.3,5.2-7.5,5.2-7.5s2-9.8,7.8-18.5c2.1-3.2,5-5.7,7.8-7.5
						c-6.8,6.5-12.2,20.4-12.8,25.1c-0.7,5.9,2.8,25.8,8.3,24.6c0,0-17.3-27.5,8.4-51.9c3.4-1.6,6.2-2.1,6.8-1.7
						c0.9,0.7,0.2,4.6-0.3,6.9c-4.5,4.6-17.4,21-7.6,49.4c-0.5,2.7-4.8,4.6-8.2,4.4s-9.6-15.1-10.8-15.8c-1.2-0.7-1,1.5-1,1.5
						c0.7,4.3,5.8,14.1,10.3,18.1c0,0,10.6-1.9,12.5-7.5c-0.2-9-11-26.3,5.5-48.1c1.2-1.9,4.5-3.2,6-4.1c-0.9,2.9-2.8,9-2.6,10.6
						c0.2,2.2,6.8,23.2,6.8,23.2c2.9,21.9-14.1,70.9-20.2,73.6c-6.1,2.7-27.8,2.7-27.8,2.7s-1.7-10-4.6-8.8
						c-1.2,3.4-0.1,17.4,0.3,22.5c-4.5,0.3-15.8-0.3-37.9-10.3c-3.1-1.4-17.8-6.2-29.5-8.7c0-0.1,0.1-0.2,0.1-0.2
						c0.4-0.9,0.8-1.8,1.1-2.8C254.9,264.9,276,259,276,259z M210.7,271.4c0,0-0.5-1-2-1.5c-3.1-1-31.4-2.2-35.3-1.7
						s-4.9,2.7-7.1,4.1s-9,2.2-9,2.2s0.2-1.7-2.4-2.4c-2.7-0.7-4.6,2.2-4.6,2.2s-1.7-4.1-4.6-4.4c-2.9-0.2-7.8,1.7-11.9,4.6
						c-0.2-4.9-3.9-1.7-3.9-1.7s0.7-8.5,0.5-10.2c-0.2-1.7-2.4-4.1-2.4-4.1s11.7-15.6,16.6-16.1c8.8-2,16.6-11.2,19-16.1
						c21.5,0.5,29.7-4.4,29.7-4.4s1,15.1,13.7,27.3c6.7,4.1,13.5,6.9,20.2,8.8c-0.2,0.7-0.4,1.3-0.6,2c-0.1,0.4-0.3,0.8-0.5,1.2
						c-6.4-1.1-11.3-1.3-12,0.6C214.1,266.5,210.7,271.4,210.7,271.4z M138.1,131.2c1.3-2.2,23.3-13.7,27.2-15.8l-11.1,14.8
						c0,0-4.4,7.3-0.5,6.3c2.4-3.4,20.5-26.3,23.9-26.8c3.4-0.5,45.3,2.9,46.3,4.9c1,2-2.4,12.2-6.8,14.6s-25.8,0-27.8,1.5
						s-11.2,13.7-12.2,15.6c-1,2-0.5,16.1,0.5,22.9c2.9,1,17.6,17.1,19.5,17.1s11.2-6.8,13.2-8.8s20-6.3,21.9-4.4
						c2,2,3.4,8.8,2.9,11.2s-4.4,4.4-8.8,6.3c-2.4,2.4,2,0.5-2.4,4.4c-4.4,5.9-28.8,15.6-28.8,15.6c0,3.4-2,4.9-6.3,9.8
						c-3.4,2-21.9,2.9-27.8,2.4c-0.5-16.6-18-33.6-21.5-35.6c-1.5-10.7-1-33.6-0.5-36.1s-2.4-6.3-3.4-8.3S136.6,133.7,138.1,131.2z
						 M27.1,272.6c4.9-7.6,32.7-30.7,32.7-30.7c-7.1,2.9-16.8,8.3-23.9,13.4c0.5-1,2.4-5.9,11.5-15.8c22.1-12.8,65.6-25,76.3-27.9
						c6.5,8.9,16.8,24.5,16.8,24.5l-20,23.9c0,0-51,8.1-86.2,31.3C29.4,286,27.1,272.6,27.1,272.6z M349.9,553
						c0,0-24.9,18.8-117.5,11c-2.9-6.8-5.1-16.6-4.6-20.5c0,0-18.3,9-21.2,11.2c-4.6-2.4-36.3-12.4-45.3-23.9
						c5.9-9.3,25.4-51.9,24.6-68.3c-2-7.6-7.8-14.6-7.8-14.6s3.4-9.3,1.5-12.4c-1.7-1.7-2.9-3.4-2.9-3.4s-13.7-28.5-14.6-38.5
						c-1-10-0.7-46.1,5.4-59.5c-7.6,10.5-14.6,41.7-11.2,55.8c-4.1-2.7-6.8-5.1-8-10.5c-0.8-3.7-2.4-31.2,15.8-67.3
						c-16.6,24.6-20.2,57.7-20.2,60.9c-4.4-2.2-14.9-7.8-20.5-13.7c0,0-7.8-2.7-11.9-6.3c-4.1-3.7-11.5-16.6-12.9-18
						c-3.4,1.2-12.7,2.4-17.8,2.7c0,0-2-6.3-1.5-11.7c0,0-10,5.4-16.3,3.9s-15.8-11-15.8-11s-21.7-0.5-31.7-4.4c0,0,5.2-9,19-19
						c18.2-13.2,49.8-28.7,88.5-32.4l0.2-0.1c0.5,0.6,1.1,1.3,1.7,2c2.4,2.7,0,8.8,0,8.8s-21.5,15.4-30.2,31.9
						c8.3-14.1,29.5-26.8,31-27.3s5.1,0.2,5.1,0.2s0,3.2,0.7,2.7s11-5.6,13.2-4.1s4.1,4.4,6.1,5.4c0.7,0.4,1.4,0.3,2-0.1
						c-2,3.7-4.1,10.3-5.7,22.4c1.4-9.1,8.3-20.1,11.8-25.3c2.5-0.6,5.6-1.2,6.9-1.2c2,0,6.3-4.1,8.3-4.9c3.9-0.7,30.7-0.7,30.7-0.7
						c11.5,4.1,22.9,14.6,31.4,28c-6.3-16.1-21.9-25.8-21.9-25.8c2.4-0.7,6.3-10.2,6.3-10.2s12.7,1.5,20,4.4
						c7.3,2.9,35.1,15,58.3,16.6c5.1,0.2,33.4-5.6,39-6.1c5.6-0.5,2.9,0,6.8,1.2c3.9,1.2,8.8-0.2,16.6-0.7
						c-2,3.9-26.3,22.7-26.3,22.7s-9.5-3.4-17.6-2.2c-20.2,4.1-64.4,8.8-64.4,8.8c31.9,2,70.7-5.1,70.7-5.1
						c51.2,15.1,67,31.7,68,33.6s-1,2.7-1,2.7l46,43.5c-34.6,20.7-51.6,41.9-54,45.9c-2.9-0.7-15.1-11-17.6-12.4c0,1,1.2,2.2,2,3.7
						c0.7,1.5,1.2,5.4-2,1.5c-1.5-4.9-9.8-13.4-9.8-13.4s5.9-0.5,9-0.7c3.2-0.2,6.6,2.4,17.1,3.4c-5.6-0.7-10-3.7-18.3-10.5
						c-18.8-1.2-48.3,4.6-49.7,8.8c4.1-0.5,22.7-3.9,29-1c-3.1,0.4-6,1.9-11.2,7.1c6.8-3.4,11.9-3.3,11.9-3.3l-6.7,50.1l-2.3-0.5
						c2.9,2.9,5.9,15.1,5.9,15.1c-2,5.9-6.8,11.2-6.8,11.2l2.5,9.2c-7-2.1-15-6.5-20.8-14.5c-7.8,3.2-14.6,13.2-14.6,13.2
						c2,11.7,10.2,19,15.4,21.7c5.1,2.7,7.8,9.8,7.8,9.8c4.9,7.8,12.9,11,21.7,14.1c0.3,4.2,4.1,8.3,6.8,10.8
						C350.6,553,349.9,553,349.9,553z M457.4,476.4c-12.9,12.4-45.6,29.7-83.4,52.7c-3.2,27.1-19.3,20.2-19.3,20.2
						c-5.3-1.7-6-6.6-6-10.2c-9.9,0.2-19.8-9-19.8-9c-1.2-0.7-5.6-10.9-7.7-13.6c-2.2-2.7-8-4.1-9.9-5.3c-1.9-1.2-7.2-11.4-6.5-13.1
						s8.9-9.7,9.7-9.7c0.7,0,1.7,4.1,7.7,9c6,4.9,17.4,6.3,20.8,6.6c3.4,0.2,10.9,7.3,10.9,7.3s2.2,0.8,4.1,1.8
						c-1.6-5.5-8.5-11.4-16.5-13.6c-0.8-3.4-2.5-9.7-1.9-11.7c3.6,3.5,13.4,12.9,14.8,13.1c1.7,0.2,8.3,3.2,8.3,3.2l-1.7-4.6
						c17.3-15.9,37.1-41.1,43.7-49.8c17.3-11.5,43.4-23.8,53.2-28.4c3.8,3,15,17.3,17.6,25C467.9,454.3,469.4,461.6,457.4,476.4z"/>
					<path class="st2" d="M398.2,406.5c5.9-3.9,2.9-23.4-1-29.5c2.4,8.8,4.1,26.8-2.9,30.7C394.3,407.7,392.3,410.4,398.2,406.5z"/>
					<path class="st2" d="M209.2,423c65.3,43.9,113.8,47.8,113.8,47.8C247.6,447.7,209.2,423,209.2,423z"/>
					<path class="st2" d="M221.6,480.2c47.8,7.8,59.5,7.8,92.3,0.3C276.8,487,221.6,480.2,221.6,480.2z"/>
					<path class="st2" d="M231.7,329.7c0,0-18.9,19.5-9.8,41C221.9,370.6,219,346.3,231.7,329.7z"/>
				</g>
				<path class="st2" d="M299.2,175.9c-1.7-1.8-4.1-3.1-6.6-3.2c-0.9-0.1-1,1.2-0.2,1.5c1.5,0.5,2.9,1.1,4,2.3
					c0.5,0.5,0.9,1.1,1.2,1.8c0.2,0.3,0.3,0.6,0.4,1c0,0.1,0.1,0.3,0.1,0.4c0,0.1,0,0.1,0,0.1c-0.8,1.2,0.2,3,1.8,2.5
					C303.1,181.3,300.6,177.4,299.2,175.9z"/>
				<path class="st2" d="M149,194.7c-3.7-9.1-16.6-10.1-26.3-3.4c-7.9,5.4-10.8,14.1-7.7,20.1c3,5.8,11.2,8.4,19.7,5.6
					C145,213.6,152.5,203.5,149,194.7z"/>
				<path class="st0" d="M145.3,194.5c-3.1-5.4-13.5-5.2-21.2-0.5c-6.3,3.9-8.4,9.4-5.9,13c2.5,3.4,9.1,4.5,15.9,2.3
					C142.4,206.5,148.3,199.7,145.3,194.5z"/>
			</g>
		</g>
	</g>
	<path class="st2" d="M459.1,132.5c-5.2-2.7-10.3-5.4-15.6-8.1c-2.8-1.4-4.9,2.4-2.4,4.2c4.8,3.4,9.6,6.7,14.4,10
		C459.3,141.2,463.2,134.6,459.1,132.5z"/>
	<g>
		<polygon class="st0" points="480.5,285.6 501.1,258.3 515.5,231.9 527.5,201.9 539.8,154.6 510.5,126.9 451.5,95.9 433.5,91.3 
			418.8,157.9 407.5,182.3 384.5,221.3 379.1,227.9 395.8,239.6 425.1,257.6 450.8,270.9 473.8,282.6 		"/>
		<g>
			<g>
				<path class="st1" d="M398.2,231.7c25.6-38.6,49.4-79,56.1-125.6c0.2-1.2-2.5-3-2.6-1.8c-6.7,46.4-30.3,86.7-55.9,125.1
					C395,230.6,397.5,232.7,398.2,231.7L398.2,231.7z"/>
			</g>
		</g>
		<g>
			<g>
				<path class="st1" d="M418.5,241c25.6-38.6,49.4-79,56.1-125.6c0.2-1.2-2.5-3-2.6-1.8c-6.7,46.4-30.3,86.7-55.9,125.1
					C415.4,240,417.8,242.1,418.5,241L418.5,241z"/>
			</g>
		</g>
		<g>
			<g>
				<path class="st1" d="M441.5,253.4c25.6-38.6,49.4-79,56.1-125.6c0.2-1.2-2.5-3-2.6-1.8c-6.7,46.4-30.3,86.7-55.9,125.1
					C438.4,252.3,440.8,254.4,441.5,253.4L441.5,253.4z"/>
			</g>
		</g>
		<g>
			<g>
				<path class="st1" d="M466.2,270c25.6-38.6,49.4-79,56.1-125.6c0.2-1.2-2.5-3-2.6-1.8c-6.7,46.4-30.3,86.7-55.9,125.1
					C463,269,465.5,271.1,466.2,270L466.2,270z"/>
			</g>
		</g>
		<g>
			<g>
				<path class="st1" d="M396.3,216.5c14.3,8.8,29.1,16.8,43.8,24.7c14.8,7.9,30,15.6,46.1,20.5c-0.2-0.1-1.6-3.5-2.9-3.9
					c-15.4-4.7-30.2-12-44.4-19.6c-15.2-8.1-30.4-16.3-45.1-25.3C393.3,212.5,395.4,216,396.3,216.5L396.3,216.5z"/>
			</g>
		</g>
		<g>
			<g>
				<path class="st1" d="M409.6,192c14.3,8.8,29.1,16.8,43.8,24.7c14.8,7.9,30,15.6,46.1,20.5c-0.2-0.1-1.6-3.5-2.9-3.9
					c-15.4-4.7-30.2-12-44.4-19.6c-15.2-8.1-30.4-16.3-45.1-25.3C406.5,188,408.7,191.5,409.6,192L409.6,192z"/>
			</g>
		</g>
		<g>
			<g>
				<path class="st1" d="M423.1,167.1c15.1,7.7,30.8,14.5,46.3,21.3c15.1,6.5,30.6,12.8,46.7,16.3c-0.1,0-1.6-3.6-2.9-3.9
					c-16.1-3.5-31.7-9.7-46.7-16.3c-15.6-6.8-31.2-13.6-46.3-21.3C420.6,163.5,421.8,166.5,423.1,167.1L423.1,167.1z"/>
			</g>
		</g>
		<g>
			<g>
				<path class="st1" d="M434.9,137.2c15.3,7.3,31.1,13.8,46.8,20.2c15.2,6.2,30.9,12.1,47.1,15.2c-0.1,0-1.6-3.6-2.9-3.9
					c-16.2-3.1-31.9-9-47.1-15.2c-15.7-6.4-31.5-12.9-46.8-20.2C432.4,133.6,433.6,136.6,434.9,137.2L434.9,137.2z"/>
			</g>
		</g>
		<path class="st2" d="M544.3,150.9c-9.4-9.7-27.2-25.2-38.3-32.9c-11.4-7.9-23.6-14.6-36.4-20c-10.6-4.5-39.3-11.8-39.3-11.8
			s1,63.7-55.7,143.3c-1.5-0.4,33.1,21.3,50.2,30.1c21.1,10.8,48.2,25.3,57.2,29.9c5.3-4.7,39.9-62.1,45.7-76.6
			C533.8,197.6,545.3,145.1,544.3,150.9z M519.7,209c-5.3,13.9-11.6,27.4-18.7,40.5c-6,11-12.6,22.5-20.7,32.4
			c-15.3-10.8-81.6-38.6-99.4-55.2c30.4-37.1,51.3-85.4,54.6-133.5c10.5,3.7,21,7.1,31.1,11.9c12,5.7,23.5,12.3,34.3,20.1
			c12.4,8.8,23.7,19,33.8,30.3C531.2,173.6,526.4,191.4,519.7,209z"/>
		<path class="st2" d="M521.7,151.7c-2.3-0.7-5.5-0.2-7.8,0c-3,0.2-5.9,0.5-8.9,0.9c-4.3,0.7-11,1-10.8,6.7c0.1,2.7,0.9,5.4,2.2,8
			c-9.9,6.4-19.7,12.8-29.8,18.9c-13.8,8.3-27.9,16-42.1,23.7c-1.8-3.7-3.5-7.3-5.4-11c-1-1.9-3.9-2.2-5.3-0.7
			c-4.4,4.6-10.4,8.3-15.5,12.2c-1.8,1.4-0.2,4.4,1.9,3.2c4.6-2.7,9.3-6.1,14.2-8.4c1.5,3.8,3.1,7.5,4.7,11.2c1,2.5,3.3,3.5,5.8,2.4
			c26.6-12.4,53-27.1,77.4-43.9c2.4,2.1,5.1,3.7,7.9,4.5c2.2,1,4.4,0.7,6.3-1.6c3.5-4.3,5.6-10.2,7.5-15.3
			C525.4,158.7,527.1,153.4,521.7,151.7z"/>
		<path class="st2" d="M501.4,138.2c-16.5-12.9-37.2-22.6-57-29.6c-2.4-0.8-4,2.9-1.7,4.1c9.2,4.8,18.4,9.7,27.3,15.1
			c8.9,5.5,17.2,11.8,26,17.5C500.2,148,505.5,141.4,501.4,138.2z"/>
	</g>
</g>
</svg>
